<svg xmlns="http://www.w3.org/2000/svg" xmlns:xlink="http://www.w3.org/1999/xlink" width="764.122" height="272.079" viewBox="0 0 764.122 272.079">
  <defs>
    <clipPath id="clip-path">
      <rect id="Rectangle_5853" data-name="Rectangle 5853" width="66.45" height="29.68" fill="#fff" stroke="#0b5583" stroke-width="1"/>
    </clipPath>
  </defs>
  <g id="Component_460_6" data-name="Component 460 – 6" transform="translate(0 1)">
    <g id="Group_90870" data-name="Group 90870" transform="translate(-620.748 -717.192)">
      <g id="Group_90855" data-name="Group 90855" transform="translate(621.347 717.192)">
        <g id="Group_90863" data-name="Group 90863" transform="translate(0 0)">
          <path id="Path_125046" data-name="Path 125046" d="M540,4.482,40.287.5C12.551.5-9.933,27.624-9.933,61.083s22.484,60.582,50.22,60.582H651.117c27.736,0,50.22,27.124,50.22,60.583v-.085c0,33.459-22.485,60.583-50.22,60.583l-670.279,4.037" transform="translate(61.186 -0.5)" fill="none" stroke="#0b5583" stroke-linecap="round" stroke-width="2" stroke-dasharray="0 5"/>
        </g>
      </g>
      <g id="Group_90871" data-name="Group 90871" transform="translate(620.748 960.207) rotate(-19)">
        <g id="Group_90871-2" data-name="Group 90871" clip-path="url(#clip-path)">
          <path id="Path_125047" data-name="Path 125047" d="M0,0,66.341,9.23,53.379,17.792Z" transform="translate(0.018 0.033)" fill="#fff" stroke="#0b5583" stroke-miterlimit="10" stroke-width="1"/>
          <path id="Path_125048" data-name="Path 125048" d="M0,0,53.379,17.792l2.588,8.332Z" transform="translate(0.018 0.033)" fill="#fff" stroke="#0b5583" stroke-miterlimit="10" stroke-width="1"/>
          <path id="Path_125049" data-name="Path 125049" d="M0,0,47.8,29.587l-.088-7.326Z" transform="translate(0.018 0.033)" fill="#fff" stroke="#0b5583" stroke-miterlimit="10" stroke-width="1"/>
        </g>
      </g>
    </g>
  </g>
</svg>
