<svg id="facebook_share_icon" data-name="facebook share icon" xmlns="http://www.w3.org/2000/svg" width="22.789" height="22.789" viewBox="0 0 22.789 22.789">
  <path id="Path_124501" data-name="Path 124501" d="M17.25,3.048H5.539A5.539,5.539,0,0,0,0,8.587V20.3a5.539,5.539,0,0,0,5.539,5.539H17.25A5.539,5.539,0,0,0,22.789,20.3V8.587A5.539,5.539,0,0,0,17.25,3.048M14.286,14.441H12.429v6.723H9.648V14.441H8.257V12.124h1.39v-1.39c0-1.891.785-3.014,3.014-3.014h1.855v2.318H13.358c-.869,0-.926.324-.926.928l0,1.159h2.1Z" transform="translate(0 -3.048)" fill="#256693"/>
</svg>
