<svg id="Group_90971" data-name="Group 90971" xmlns="http://www.w3.org/2000/svg" xmlns:xlink="http://www.w3.org/1999/xlink" width="256.877" height="256.877" viewBox="0 0 256.877 256.877">
  <defs>
    <clipPath id="clip-path">
      <rect id="Rectangle_5881" data-name="Rectangle 5881" width="256.877" height="256.877" fill="none"/>
    </clipPath>
  </defs>
  <g id="Group_90970" data-name="Group 90970" clip-path="url(#clip-path)">
    <path id="Path_125294" data-name="Path 125294" d="M178.785,236.779a1.229,1.229,0,1,0-.018-.036Z" transform="translate(1.088 -0.998)" fill="#638b5d"/>
    <path id="Path_125295" data-name="Path 125295" d="M178.785,236.779a1.229,1.229,0,1,0-.018-.036Z" transform="translate(1.088 -0.998)" fill="none" stroke="#638b5d" stroke-width="1"/>
    <path id="Path_125296" data-name="Path 125296" d="M173.314,225.663a1.229,1.229,0,1,0-.018-.036Z" transform="translate(1.29 -0.586)" fill="#638b5d"/>
    <path id="Path_125297" data-name="Path 125297" d="M173.314,225.663a1.229,1.229,0,1,0-.018-.036Z" transform="translate(1.29 -0.586)" fill="none" stroke="#638b5d" stroke-width="1"/>
    <path id="Path_125298" data-name="Path 125298" d="M161.209,243.615a1.268,1.268,0,1,0-.012-.039Z" transform="translate(1.736 -1.257)" fill="#638b5d"/>
    <path id="Path_125299" data-name="Path 125299" d="M161.209,243.615a1.268,1.268,0,1,0-.012-.039Z" transform="translate(1.736 -1.257)" fill="none" stroke="#638b5d" stroke-width="1"/>
    <path id="Path_125300" data-name="Path 125300" d="M157.493,231.795a1.268,1.268,0,1,0-.012-.039Z" transform="translate(1.874 -0.82)" fill="#638b5d"/>
    <path id="Path_125301" data-name="Path 125301" d="M157.493,231.795a1.268,1.268,0,1,0-.012-.039Z" transform="translate(1.874 -0.82)" fill="none" stroke="#638b5d" stroke-width="1"/>
    <path id="Path_125302" data-name="Path 125302" d="M142.8,247.7a1.229,1.229,0,1,0-.007-.039Z" transform="translate(2.416 -1.415)" fill="#638b5d"/>
    <path id="Path_125303" data-name="Path 125303" d="M142.8,247.7a1.229,1.229,0,1,0-.007-.039Z" transform="translate(2.416 -1.415)" fill="none" stroke="#638b5d" stroke-width="1"/>
    <path id="Path_125304" data-name="Path 125304" d="M140.922,235.449a1.259,1.259,0,1,0-.006-.039Z" transform="translate(2.485 -0.962)" fill="#638b5d"/>
    <path id="Path_125305" data-name="Path 125305" d="M140.922,235.449a1.259,1.259,0,1,0-.006-.039Z" transform="translate(2.485 -0.962)" fill="none" stroke="#638b5d" stroke-width="1"/>
    <path id="Path_125306" data-name="Path 125306" d="M123.979,248.928a1.248,1.248,0,1,0,0-.04Z" transform="translate(3.112 -1.468)" fill="#638b5d"/>
    <path id="Path_125307" data-name="Path 125307" d="M123.979,248.928a1.248,1.248,0,1,0,0-.04Z" transform="translate(3.112 -1.468)" fill="none" stroke="#638b5d" stroke-width="1"/>
    <path id="Path_125308" data-name="Path 125308" d="M123.989,236.537a1.249,1.249,0,1,0,0-.039Z" transform="translate(3.112 -1.009)" fill="#638b5d"/>
    <path id="Path_125309" data-name="Path 125309" d="M123.989,236.537a1.249,1.249,0,1,0,0-.039Z" transform="translate(3.112 -1.009)" fill="none" stroke="#638b5d" stroke-width="1"/>
    <path id="Path_125310" data-name="Path 125310" d="M105.193,247.284a1.239,1.239,0,1,0,.006-.039Z" transform="translate(3.808 -1.414)" fill="#638b5d"/>
    <path id="Path_125311" data-name="Path 125311" d="M105.193,247.284a1.239,1.239,0,1,0,.006-.039Z" transform="translate(3.808 -1.414)" fill="none" stroke="#638b5d" stroke-width="1"/>
    <path id="Path_125312" data-name="Path 125312" d="M107.088,235.04a1.239,1.239,0,1,0,.006-.039Z" transform="translate(3.738 -0.961)" fill="#638b5d"/>
    <path id="Path_125313" data-name="Path 125313" d="M107.088,235.04a1.239,1.239,0,1,0,.006-.039Z" transform="translate(3.738 -0.961)" fill="none" stroke="#638b5d" stroke-width="1"/>
    <path id="Path_125314" data-name="Path 125314" d="M86.875,242.8a1.232,1.232,0,1,0,.012-.039Z" transform="translate(4.488 -1.255)" fill="#638b5d"/>
    <path id="Path_125315" data-name="Path 125315" d="M86.875,242.8a1.232,1.232,0,1,0,.012-.039Z" transform="translate(4.488 -1.255)" fill="none" stroke="#638b5d" stroke-width="1"/>
    <path id="Path_125316" data-name="Path 125316" d="M90.61,230.989a1.233,1.233,0,1,0,.012-.039Z" transform="translate(4.35 -0.818)" fill="#638b5d"/>
    <path id="Path_125317" data-name="Path 125317" d="M90.61,230.989a1.233,1.233,0,1,0,.012-.039Z" transform="translate(4.35 -0.818)" fill="none" stroke="#638b5d" stroke-width="1"/>
    <path id="Path_125318" data-name="Path 125318" d="M69.452,235.584a1.269,1.269,0,1,0,.018-.036Z" transform="translate(5.136 -0.994)" fill="#638b5d"/>
    <path id="Path_125319" data-name="Path 125319" d="M69.452,235.584a1.269,1.269,0,1,0,.018-.036Z" transform="translate(5.136 -0.994)" fill="none" stroke="#638b5d" stroke-width="1"/>
    <path id="Path_125320" data-name="Path 125320" d="M74.94,224.476a1.269,1.269,0,1,0,.018-.036Z" transform="translate(4.933 -0.583)" fill="#638b5d"/>
    <path id="Path_125321" data-name="Path 125321" d="M74.94,224.476a1.269,1.269,0,1,0,.018-.036Z" transform="translate(4.933 -0.583)" fill="none" stroke="#638b5d" stroke-width="1"/>
    <path id="Path_125322" data-name="Path 125322" d="M53.331,225.8a1.229,1.229,0,1,0,.022-.033Z" transform="translate(5.737 -0.638)" fill="#638b5d"/>
    <path id="Path_125323" data-name="Path 125323" d="M53.331,225.8a1.229,1.229,0,1,0,.022-.033Z" transform="translate(5.737 -0.638)" fill="none" stroke="#638b5d" stroke-width="1"/>
    <path id="Path_125324" data-name="Path 125324" d="M60.445,215.658a1.255,1.255,0,1,0,.023-.033Z" transform="translate(5.473 -0.263)" fill="#638b5d"/>
    <path id="Path_125325" data-name="Path 125325" d="M60.445,215.658a1.255,1.255,0,1,0,.023-.033Z" transform="translate(5.473 -0.263)" fill="none" stroke="#638b5d" stroke-width="1"/>
    <path id="Path_125326" data-name="Path 125326" d="M38.883,213.679a1.256,1.256,0,1,0,.028-.029Z" transform="translate(6.276 -0.195)" fill="#638b5d"/>
    <path id="Path_125327" data-name="Path 125327" d="M38.883,213.679a1.256,1.256,0,1,0,.028-.029Z" transform="translate(6.276 -0.195)" fill="none" stroke="#638b5d" stroke-width="1"/>
    <path id="Path_125328" data-name="Path 125328" d="M47.46,204.736a1.213,1.213,0,1,0,.027-.03Z" transform="translate(5.958 0.136)" fill="#638b5d"/>
    <path id="Path_125329" data-name="Path 125329" d="M47.46,204.736a1.213,1.213,0,1,0,.027-.03Z" transform="translate(5.958 0.136)" fill="none" stroke="#638b5d" stroke-width="1"/>
    <path id="Path_125330" data-name="Path 125330" d="M26.451,199.5a1.233,1.233,0,1,0,.032-.025Z" transform="translate(6.742 0.325)" fill="#638b5d"/>
    <path id="Path_125331" data-name="Path 125331" d="M26.451,199.5a1.233,1.233,0,1,0,.032-.025Z" transform="translate(6.742 0.325)" fill="none" stroke="#638b5d" stroke-width="1"/>
    <path id="Path_125332" data-name="Path 125332" d="M36.287,191.966a1.238,1.238,0,1,0,.031-.024Z" transform="translate(6.377 0.604)" fill="#638b5d"/>
    <path id="Path_125333" data-name="Path 125333" d="M36.287,191.966a1.238,1.238,0,1,0,.031-.024Z" transform="translate(6.377 0.604)" fill="none" stroke="#638b5d" stroke-width="1"/>
    <path id="Path_125334" data-name="Path 125334" d="M16.319,183.6a1.243,1.243,0,1,0,.035-.019Z" transform="translate(7.123 0.911)" fill="#638b5d"/>
    <path id="Path_125335" data-name="Path 125335" d="M16.319,183.6a1.243,1.243,0,1,0,.035-.019Z" transform="translate(7.123 0.911)" fill="none" stroke="#638b5d" stroke-width="1"/>
    <path id="Path_125336" data-name="Path 125336" d="M27.186,177.645a1.258,1.258,0,1,0,.036-.019Z" transform="translate(6.72 1.131)" fill="#638b5d"/>
    <path id="Path_125337" data-name="Path 125337" d="M27.186,177.645a1.258,1.258,0,1,0,.036-.019Z" transform="translate(6.72 1.131)" fill="none" stroke="#638b5d" stroke-width="1"/>
    <path id="Path_125338" data-name="Path 125338" d="M8.723,166.334a1.237,1.237,0,1,0,.039-.014Z" transform="translate(7.41 1.547)" fill="#638b5d"/>
    <path id="Path_125339" data-name="Path 125339" d="M8.723,166.334a1.237,1.237,0,1,0,.039-.014Z" transform="translate(7.41 1.547)" fill="none" stroke="#638b5d" stroke-width="1"/>
    <path id="Path_125340" data-name="Path 125340" d="M20.369,162.1a1.255,1.255,0,1,0,.038-.013Z" transform="translate(6.979 1.703)" fill="#638b5d"/>
    <path id="Path_125341" data-name="Path 125341" d="M20.369,162.1a1.255,1.255,0,1,0,.038-.013Z" transform="translate(6.979 1.703)" fill="none" stroke="#638b5d" stroke-width="1"/>
    <path id="Path_125342" data-name="Path 125342" d="M3.843,148.118a1.253,1.253,0,1,0,.039-.008Z" transform="translate(7.598 2.219)" fill="#638b5d"/>
    <path id="Path_125343" data-name="Path 125343" d="M3.843,148.118a1.253,1.253,0,1,0,.039-.008Z" transform="translate(7.598 2.219)" fill="none" stroke="#638b5d" stroke-width="1"/>
    <path id="Path_125344" data-name="Path 125344" d="M16,145.711a1.248,1.248,0,1,0,.039-.008Z" transform="translate(7.148 2.309)" fill="#638b5d"/>
    <path id="Path_125345" data-name="Path 125345" d="M16,145.711a1.248,1.248,0,1,0,.039-.008Z" transform="translate(7.148 2.309)" fill="none" stroke="#638b5d" stroke-width="1"/>
    <path id="Path_125346" data-name="Path 125346" d="M1.79,129.372a1.244,1.244,0,1,0,.04,0Z" transform="translate(7.681 2.913)" fill="#638b5d"/>
    <path id="Path_125347" data-name="Path 125347" d="M1.79,129.372a1.244,1.244,0,1,0,.04,0Z" transform="translate(7.681 2.913)" fill="none" stroke="#638b5d" stroke-width="1"/>
    <path id="Path_125348" data-name="Path 125348" d="M14.169,128.841a1.244,1.244,0,1,0,.04,0Z" transform="translate(7.223 2.932)" fill="#638b5d"/>
    <path id="Path_125349" data-name="Path 125349" d="M14.169,128.841a1.244,1.244,0,1,0,.04,0Z" transform="translate(7.223 2.932)" fill="none" stroke="#638b5d" stroke-width="1"/>
    <path id="Path_125350" data-name="Path 125350" d="M2.612,110.532a1.235,1.235,0,1,0,.039,0Z" transform="translate(7.658 3.61)" fill="#638b5d"/>
    <path id="Path_125351" data-name="Path 125351" d="M2.612,110.532a1.235,1.235,0,1,0,.039,0Z" transform="translate(7.658 3.61)" fill="none" stroke="#638b5d" stroke-width="1"/>
    <path id="Path_125352" data-name="Path 125352" d="M14.928,111.891a1.231,1.231,0,1,0,.04,0Z" transform="translate(7.202 3.56)" fill="#638b5d"/>
    <path id="Path_125353" data-name="Path 125353" d="M14.928,111.891a1.231,1.231,0,1,0,.04,0Z" transform="translate(7.202 3.56)" fill="none" stroke="#638b5d" stroke-width="1"/>
    <path id="Path_125354" data-name="Path 125354" d="M6.292,92.036a1.249,1.249,0,1,0,.039.011Z" transform="translate(7.528 4.297)" fill="#638b5d"/>
    <path id="Path_125355" data-name="Path 125355" d="M6.292,92.036a1.249,1.249,0,1,0,.039.011Z" transform="translate(7.528 4.297)" fill="none" stroke="#638b5d" stroke-width="1"/>
    <path id="Path_125356" data-name="Path 125356" d="M18.257,95.253a1.221,1.221,0,1,0,.039.01Z" transform="translate(7.085 4.178)" fill="#638b5d"/>
    <path id="Path_125357" data-name="Path 125357" d="M18.257,95.253a1.221,1.221,0,1,0,.039.01Z" transform="translate(7.085 4.178)" fill="none" stroke="#638b5d" stroke-width="1"/>
    <path id="Path_125358" data-name="Path 125358" d="M12.743,74.314a1.286,1.286,0,1,0,.037.017Z" transform="translate(7.296 4.955)" fill="#638b5d"/>
    <path id="Path_125359" data-name="Path 125359" d="M12.743,74.314a1.286,1.286,0,1,0,.037.017Z" transform="translate(7.296 4.955)" fill="none" stroke="#638b5d" stroke-width="1"/>
    <path id="Path_125360" data-name="Path 125360" d="M24.079,79.313a1.285,1.285,0,1,0,.037.017Z" transform="translate(6.876 4.77)" fill="#638b5d"/>
    <path id="Path_125361" data-name="Path 125361" d="M24.079,79.313a1.285,1.285,0,1,0,.037.017Z" transform="translate(6.876 4.77)" fill="none" stroke="#638b5d" stroke-width="1"/>
  </g>
</svg>
