<svg xmlns="http://www.w3.org/2000/svg" width="90.927" height="43.629" viewBox="0 0 90.927 43.629">
  <g id="Group_90459" data-name="Group 90459" opacity="0.559">
    <g id="Group_9720" data-name="Group 9720" transform="translate(0 17.755)">
      <path id="Path_9311" data-name="Path 9311" d="M637.2,829.4c-.231-1.69-.47-3.386-.547-5.087-.1-2.186.027-4.382-.081-6.567-.126-2.573-1.47-4.057-4.131-4.418a25.183,25.183,0,0,0-5.311-.163,5.736,5.736,0,0,0-5.535,4.69l4.009.708a4.022,4.022,0,0,1,5.252-1.89,2.148,2.148,0,0,1,1.327,2.233c-.029.907-.859.7-1.37.937a3.022,3.022,0,0,1-.569.149c-2.007.477-4.056.836-6.013,1.46a4.543,4.543,0,0,0-3.244,4.989,4.871,4.871,0,0,0,3.843,4.33,7.854,7.854,0,0,0,6.728-1.288c.3-.22.6-.43.949-.675l.646,1.821h4.619v-.19A3.413,3.413,0,0,1,637.2,829.4Zm-8.542-1.508a2.554,2.554,0,0,1-3.021-2.29,1.749,1.749,0,0,1,1.211-1.879c1.7-.538,3.438-.944,5.176-1.409C632.552,825.743,631.559,827.448,628.66,827.893Z" transform="translate(-546.848 -810.473)" fill="#fff" fill-rule="evenodd"/>
      <path id="Path_9312" data-name="Path 9312" d="M581.081,817.424a4.486,4.486,0,0,0-3.218-4.152,7.415,7.415,0,0,0-7.948,1.836c-.156.166-.341.306-.693.617v-2.411h-4.2v17.053H569.6c0-2.272-.023-4.487.008-6.7.021-1.425.05-2.856.206-4.271a3.678,3.678,0,0,1,3.89-3.189c1.8.089,2.786,1.272,2.866,3.441.008.222.01.444.01.666q.007,4.524.012,9.048c0,.335,0,.671,0,.984h4.6a1.738,1.738,0,0,0,.056-.263c0-2.191.03-4.381,0-6.572C581.234,821.48,581.215,819.448,581.081,817.424Z" transform="translate(-508.384 -810.276)" fill="#fff" fill-rule="evenodd"/>
      <path id="Path_9313" data-name="Path 9313" d="M516.1,815.565c-.053,3.141-.093,6.283-.168,9.424a3.411,3.411,0,0,1-2.477,3.318c-2.22.808-4.108-.343-4.269-2.612-.056-.791-.05-1.586-.051-2.38-.006-2.947,0-5.893,0-8.974h-4.592s-.057,1.146-.062,2.1c-.015,3.239-.1,6.481.027,9.715.167,4.35,3.5,6.633,7.843,5.481a7.748,7.748,0,0,0,4.064-2.765v2.552H520.6V814.394h-4.5C516.1,814.817,516.1,815.191,516.1,815.565Z" transform="translate(-466.731 -811.343)" fill="#fff" fill-rule="evenodd"/>
      <path id="Path_9314" data-name="Path 9314" d="M383.789,808.711h4.464l1.358,0v16.01h4.957V808.7h5.889v-4.315H383.789Z" transform="translate(-383.789 -804.388)" fill="#fff" fill-rule="evenodd"/>
    </g>
    <g id="Group_9721" data-name="Group 9721" transform="translate(16.012)">
      <path id="Path_9315" data-name="Path 9315" d="M481.526,745.647c-.14-.007-.138-.247-.34-.22l-.071.271c-.232.195-.592-.079-.8.2-.575-.084-.957.373-1.472.5a4.093,4.093,0,0,0-1.692.652.392.392,0,0,1-.369.05.678.678,0,0,0-.6.215,3.448,3.448,0,0,1-1.465.747c-.776.767-1.918.973-2.751,1.667a1.322,1.322,0,0,1-.928.266l-.726.777c-.462-.292-.586.244-.9.368a10.753,10.753,0,0,0-2.209,1.3c-.7.5-1.64.627-2.194,1.341-.325-.051-.4.286-.626.382a16.711,16.711,0,0,0-3.225,2.168c-.574.413-1.041.931-1.6,1.346a27.268,27.268,0,0,0-2.683,2.245,41.609,41.609,0,0,0-3.315,3.333c-.8.978-1.82,1.781-2.66,2.748-.854.983-1.557,2.069-2.4,3.055a7.041,7.041,0,0,0-.784.828c-.728,1.226-1.711,2.283-2.46,3.494a3.3,3.3,0,0,1-.556.922,2.327,2.327,0,0,0-.759,1.031c-.143.428-.576.635-.832.992-.347.485-.477,1.139-1.069,1.462-.075-.134-.24-.183-.283-.365-.249-1.042-.6-2.067-.754-3.12a9.647,9.647,0,0,0-.517-1.8,3.509,3.509,0,0,0-.814-1.771.237.237,0,0,1-.08-.156c-.009-.279.046-.567-.27-.754-.275-.162-.087-.5-.3-.745s-.3-.666-.613-.884a1,1,0,0,1-.37-.612,4.656,4.656,0,0,0-.505-1.045,7.629,7.629,0,0,0-.734-.941,16.179,16.179,0,0,0-1.274-1.534c-.216.048-.411-.073-.5.19a14.286,14.286,0,0,0,.752,1.378,2.012,2.012,0,0,1,.447,1.252,1.354,1.354,0,0,0,.4,1.111,1.533,1.533,0,0,0,.268,1.193.464.464,0,0,1,.123.429,1.926,1.926,0,0,0,.187.783c.082.284.112.59.171.877a3.525,3.525,0,0,1,.245,1.534.654.654,0,0,0,.039.362c.186.479.244.989.382,1.472.13.458.016.963.21,1.338.181.349-.008.731.191.967.275.326,0,.718.205.968.271.331.07.671.156.992a4.5,4.5,0,0,1,.2,1.637c.353.3.06.744.218,1.055a2.464,2.464,0,0,1,.181,1.069,1.828,1.828,0,0,1,.462,1.347c.165.785.86,1.4.735,2.214a6.362,6.362,0,0,0,.728,1.214c.03.676-.621.287-.783.649.114.277.339.169.508.2.2-.091.279-.348.464-.375.227-.014.379-.023.505.126.1.112.184.272.369.235.494-.079.434-.731.948-.81.079-.5-.136-1.095.453-1.544.254.288.071.842.576.844.269-.029.192-.251.243-.368.317-.73.975-1.332.924-2.2.233-.1.2-.363.337-.536A14.064,14.064,0,0,0,446.979,782a4.563,4.563,0,0,1,1.112-1.428c.021-.211-.037-.39.152-.547a4.781,4.781,0,0,0,.857-1.176,21.666,21.666,0,0,1,1.5-2.275,15.813,15.813,0,0,0,1.063-1.47c.808-1.219,1.66-2.406,2.589-3.545a3.706,3.706,0,0,0,.836-1.4.345.345,0,0,0,.419-.175,21.413,21.413,0,0,1,2.945-3.394c1.878-1.8,3.707-3.652,5.7-5.343.934-.791,1.993-1.414,2.907-2.216.23-.2.527-.042.774-.31.581-.63,1.5-.818,2.192-1.317.081-.058.246-.008.329-.008l.945-.91a2.341,2.341,0,0,0,1.427-.613c.22-.03.453.059.672-.066-.037-.387.479-.471.5-.853a.341.341,0,0,1,.381-.23c.042.006.9-.5.925-.527.249-.258.852-.783,1.062-.762.425.041.6-.306.916-.423q.205.007.2-.191c.273-.089.4-.317.6-.481-.223-.17-.459.009-.6-.18.547-.582,1.449-.711,1.986-1.378-.249-.064-.463-.143-.59.032a2.038,2.038,0,0,1-.844.555c-.322.156-.5.594-.954.5-.2-.056-.459.138-.609-.162.085-.279.324-.556.554-.575.63-.053.938-.571,1.44-.788q.2.007.2-.191c.406-.2.7-.583,1.229-.594.218,0,.413-.274.616-.622a9.063,9.063,0,0,0-2.438,1.026c-.2-.007-.3.306-.507.182-.227-.136-.266.311-.457.132l-.182-.187c.192-.62.744-.929,1.332-1.422-.429-.019-.68-.034-.931-.038a.256.256,0,0,1-.244-.111c.033-.21-.082-.437.084-.646l.207.172c.429-.512,1.271-.357,1.6-.966h.626l.139-.383h.735c-.119-.318.141-.4.3-.554h.6C481.35,745.984,481.6,745.919,481.526,745.647Z" transform="translate(-435.023 -745.425)" fill="#fff" fill-rule="evenodd"/>
      <path id="Path_9316" data-name="Path 9316" d="M540.176,787.727c-.082.067-.071.273-.151.306a5.98,5.98,0,0,0-2.054,1.186,1.506,1.506,0,0,0-1.114.591c-.343.312-.837.374-1.115.743-.472-.026-.62.32-.857.635l.183.162a1.077,1.077,0,0,0,.674-.606h.508a4.333,4.333,0,0,1,1.667-1.134,24.031,24.031,0,0,0,2.133-1.228c.193-.1.463-.263.446-.561A.207.207,0,0,0,540.176,787.727Z" transform="translate(-503.676 -774.958)" fill="#fff" fill-rule="evenodd"/>
      <path id="Path_9317" data-name="Path 9317" d="M445.728,863.718c-.233-.177-.2-.529-.514-.658-.274.553.119,1.067.179,1.583.058.5.388.992.489,1.536l.123.339.1-.063v-1.1l-.374-.282Z" transform="translate(-441.963 -827.639)" fill="#fff" fill-rule="evenodd"/>
      <path id="Path_9318" data-name="Path 9318" d="M465.375,873.474a2.155,2.155,0,0,0-.629,1.2c-.761.631-1.016,1.619-1.849,2.125-.212.131-.507-.081-.757.195.239.243.2.68.634.812a2.209,2.209,0,0,0,.8-.484c0-.19,0-.381,0-.574l.812-.776c-.307-.475.322-.7.367-1.169.273-.26.552-.219.771-.3.063-.717.668-1.275.613-2.084C465.665,872.7,465.708,873.225,465.375,873.474Z" transform="translate(-453.665 -834.178)" fill="#fff" fill-rule="evenodd"/>
      <path id="Path_9319" data-name="Path 9319" d="M448.428,875.677c-.149.777.52,1.248.729,1.879V876.7C448.666,876.559,448.94,875.9,448.428,875.677Z" transform="translate(-444.224 -836.456)" fill="#fff" fill-rule="evenodd"/>
      <path id="Path_9320" data-name="Path 9320" d="M531.567,800.307a1.438,1.438,0,0,0,.006.4c.059.169-.265.182-.145.362.524-.15.521-.153.464-.71Z" transform="translate(-501.281 -783.781)" fill="#fff" fill-rule="evenodd"/>
      <path id="Path_9321" data-name="Path 9321" d="M528.11,804.571a.632.632,0,0,0,.387-.339h-.452C528.076,804.4,528.093,804.483,528.11,804.571Z" transform="translate(-498.973 -786.524)" fill="#fff" fill-rule="evenodd"/>
      <path id="Path_9322" data-name="Path 9322" d="M492.733,844.136v.262l.419-.217C492.967,844.032,492.858,844.03,492.733,844.136Z" transform="translate(-474.697 -814.361)" fill="#fff" fill-rule="evenodd"/>
    </g>
  </g>
</svg>
