<svg xmlns="http://www.w3.org/2000/svg" xmlns:xlink="http://www.w3.org/1999/xlink" width="58.662" height="61.354" viewBox="0 0 58.662 61.354">
  <defs>
    <clipPath id="clip-path">
      <rect id="Rectangle_5864" data-name="Rectangle 5864" width="58.662" height="61.354" fill="none" stroke="#fff" stroke-width="1"/>
    </clipPath>
  </defs>
  <g id="Group_91195" data-name="Group 91195" transform="translate(0 0)">
    <g id="Group_90903" data-name="Group 90903" transform="translate(0 0)" clip-path="url(#clip-path)">
      <path id="Path_125074" data-name="Path 125074" d="M33.774,30.371H53.712a4.808,4.808,0,0,1,4.808,4.808V67.1a4.808,4.808,0,0,1-4.808,4.808H5.309A4.809,4.809,0,0,1,.5,67.1V35.179a4.809,4.809,0,0,1,4.809-4.808H25.058" transform="translate(-0.179 -10.874)" fill="none" stroke="#fff" stroke-width="1"/>
      <path id="Path_125075" data-name="Path 125075" d="M38.487,22.46a1.577,1.577,0,0,1,1.577-1.577h6.093a1.577,1.577,0,0,1,1.577,1.577l-.618,8.652a1.577,1.577,0,0,1-1.577,1.577H40.531a1.577,1.577,0,0,1-1.577-1.577l-.467-8.652" transform="translate(-13.78 -7.477)" fill="none" stroke="#fff" stroke-width="1"/>
      <line id="Line_4091" data-name="Line 4091" x2="13.083" transform="translate(39.302 29.638)" fill="none" stroke="#fff" stroke-width="1"/>
      <line id="Line_4092" data-name="Line 4092" x2="13.083" transform="translate(39.302 37.705)" fill="none" stroke="#fff" stroke-width="1"/>
      <line id="Line_4093" data-name="Line 4093" x2="5.312" transform="translate(47.074 44.099)" fill="none" stroke="#fff" stroke-width="1"/>
      <line id="Line_4094" data-name="Line 4094" x2="5.312" transform="translate(47.074 51.87)" fill="none" stroke="#fff" stroke-width="1"/>
      <line id="Line_4095" data-name="Line 4095" x2="10.821" transform="translate(33.105 44.099)" fill="none" stroke="#fff" stroke-width="1"/>
      <line id="Line_4096" data-name="Line 4096" x2="10.821" transform="translate(33.105 51.87)" fill="none" stroke="#fff" stroke-width="1"/>
      <circle id="Ellipse_1008" data-name="Ellipse 1008" cx="5.41" cy="5.41" r="5.41" transform="translate(12.25 29.737)" fill="none" stroke="#fff" stroke-width="1"/>
      <path id="Path_125076" data-name="Path 125076" d="M32.592,74.648c.006-.193.013-.385.013-.578a10.442,10.442,0,1,0-20.883,0c0,.193.006.385.013.578" transform="translate(-4.197 -22.78)" fill="none" stroke="#fff" stroke-width="1"/>
      <line id="Line_4097" data-name="Line 4097" x1="20.857" transform="translate(7.538 51.868)" fill="none" stroke="#fff" stroke-width="1"/>
      <path id="Path_125077" data-name="Path 125077" d="M31.03,14.771l-9.461.008a4.546,4.546,0,0,1-4.546-4.546h0a4.546,4.546,0,0,1,4.546-4.546s3.106-.175,3.177-2.023.071-3.626.071-3.626" transform="translate(-6.095 -0.013)" fill="none" stroke="#fff" stroke-width="1"/>
      <path id="Path_125078" data-name="Path 125078" d="M58.665,0s0,1.778.071,3.626S61.913,5.65,61.913,5.65a4.546,4.546,0,1,1,0,9.091l-9.394.008" transform="translate(-18.804 0)" fill="none" stroke="#fff" stroke-width="1"/>
    </g>
  </g>
</svg>
