<svg xmlns="http://www.w3.org/2000/svg" width="49.299" height="62.586" viewBox="0 0 49.299 62.586">
  <g id="Group_90987" data-name="Group 90987" transform="translate(0.708 0.742)">
    <g id="Group_90988" data-name="Group 90988" transform="translate(0 0)">
      <path id="Path_125374" data-name="Path 125374" d="M39.482,45.867l-8.153.08-6.549,4.858-6.643-4.727-8.153.081-2.6-7.729L.743,33.7l2.443-7.779L.59,18.193l6.549-4.858L9.582,5.556l8.153-.08L24.284.618l6.643,4.727,8.153-.081,2.6,7.729,6.643,4.727L45.878,25.5l2.6,7.729-6.549,4.858Z" transform="translate(-0.59 -0.618)" fill="none" stroke="#638b5d" stroke-width="1.2"/>
      <circle id="Ellipse_1010" data-name="Ellipse 1010" cx="13.876" cy="13.876" r="13.876" transform="translate(10.066 11.447)" fill="none" stroke="#638b5d" stroke-width="1.2"/>
      <path id="Path_125375" data-name="Path 125375" d="M69.511,235.355l-.1,15.071,4.61-2.309a2.422,2.422,0,0,1,2.217.089l1.853,1.207a3.141,3.141,0,0,0,3.111,0l1.888-1.227a2.426,2.426,0,0,1,2.182-.1l4.938,2.344.434-15.244" transform="translate(-56.089 -189.556)" fill="none" stroke="#638b5d" stroke-width="1.2"/>
    </g>
  </g>
</svg>
