<svg xmlns="http://www.w3.org/2000/svg" xmlns:xlink="http://www.w3.org/1999/xlink" width="378.758" height="535.823" viewBox="0 0 378.758 535.823">
  <defs>
    <clipPath id="clip-path">
      <rect id="Rectangle_5853" data-name="Rectangle 5853" width="66.45" height="29.68" fill="#fff" stroke="#256693" stroke-width="1"/>
    </clipPath>
  </defs>
  <g id="Group_91159" data-name="Group 91159" transform="translate(-17.621 -1565.654)">
    <g id="Group_91103" data-name="Group 91103" transform="translate(0 310)">
      <g id="Group_91088" data-name="Group 91088" transform="translate(17.621 1255.654)">
        <g id="Group_91089" data-name="Group 91089">
          <path id="Path_125404" data-name="Path 125404" d="M261.7,1H95.008a94.008,94.008,0,0,0,0,188.016H283.75a94.007,94.007,0,0,1,94.008,94.007h0a94.007,94.007,0,0,1-94.008,94.007H44.985a43.986,43.986,0,0,0,0,87.971H262.408a21.485,21.485,0,1,1,0,42.971H132.838" fill="none" stroke="#256693" stroke-linecap="round" stroke-width="2" stroke-dasharray="0 5"/>
        </g>
      </g>
      <g id="Group_90871" data-name="Group 90871" transform="translate(95.506 1763.414) rotate(-19)">
        <g id="Group_90871-2" data-name="Group 90871" transform="translate(0)" clip-path="url(#clip-path)">
          <path id="Path_125047" data-name="Path 125047" d="M0,0,66.341,9.23,53.379,17.792Z" transform="translate(0.018 0.033)" fill="#fff" stroke="#256693" stroke-miterlimit="10" stroke-width="1"/>
          <path id="Path_125048" data-name="Path 125048" d="M0,0,53.379,17.792l2.588,8.332Z" transform="translate(0.018 0.033)" fill="#fff" stroke="#256693" stroke-miterlimit="10" stroke-width="1"/>
          <path id="Path_125049" data-name="Path 125049" d="M0,0,47.8,29.587l-.088-7.326Z" transform="translate(0.018 0.033)" fill="#fff" stroke="#256693" stroke-miterlimit="10" stroke-width="1"/>
        </g>
      </g>
    </g>
  </g>
</svg>
