<svg id="Group_90992" data-name="Group 90992" xmlns="http://www.w3.org/2000/svg" xmlns:xlink="http://www.w3.org/1999/xlink" width="38.16" height="53.411" viewBox="0 0 38.16 53.411">
  <defs>
    <clipPath id="clip-path">
      <rect id="Rectangle_5890" data-name="Rectangle 5890" width="38.16" height="53.411" fill="none" stroke="#638b5d" stroke-width="1.2"/>
    </clipPath>
  </defs>
  <g id="Group_90992-2" data-name="Group 90992" transform="translate(0 0)" clip-path="url(#clip-path)">
    <path id="Path_125377" data-name="Path 125377" d="M3.713,42.409V38.914H19.207a7.26,7.26,0,0,0,2.4-.392M14.273,14.077v2.287H19.9c10.607,0,17.293,7.194,17.293,16.326a16,16,0,0,1-6.623,13.436M4.011,3.736,3.989.5h30.9V10.968H30.9" transform="translate(0.413 0.056)" fill="none" stroke="#638b5d" stroke-width="1.2"/>
    <path id="Path_125378" data-name="Path 125378" d="M15.994,41.948a5.951,5.951,0,0,0,6.318-6.226,6.071,6.071,0,0,0-6.318-6.18H.776V3.534h30.9V14H11.06v5.4h5.626c10.607,0,17.293,7.193,17.293,16.324,0,9.869-7.286,16.74-17.8,16.74H.5V41.948Z" transform="translate(0.056 0.393)" fill="none" stroke="#638b5d" stroke-width="1.2"/>
    <line id="Line_4129" data-name="Line 4129" x1="3.712" y2="3.493" transform="translate(31.73 0.434)" fill="#fdfcf3" stroke="#638b5d" stroke-width="1.2"/>
    <line id="Line_4130" data-name="Line 4130" x1="3.712" y2="3.493" transform="translate(31.73 0.434)" fill="none" stroke="#638b5d" stroke-width="1.2"/>
    <line id="Line_4131" data-name="Line 4131" x1="3.524" y2="3.339" transform="translate(31.942 11.194)" fill="#fdfcf3" stroke="#638b5d" stroke-width="1.2"/>
    <line id="Line_4132" data-name="Line 4132" x1="3.524" y2="3.339" transform="translate(31.942 11.194)" fill="none" stroke="#638b5d" stroke-width="1.2"/>
    <line id="Line_4133" data-name="Line 4133" x1="3.608" y2="3.398" transform="translate(0.631 0.41)" fill="#fdfcf3" stroke="#638b5d" stroke-width="1.2"/>
    <line id="Line_4134" data-name="Line 4134" x1="3.608" y2="3.398" transform="translate(0.631 0.41)" fill="none" stroke="#638b5d" stroke-width="1.2"/>
    <line id="Line_4135" data-name="Line 4135" x1="3.922" y2="3.366" transform="translate(10.977 16.306)" fill="#fdfcf3" stroke="#638b5d" stroke-width="1.2"/>
    <line id="Line_4136" data-name="Line 4136" x1="3.922" y2="3.366" transform="translate(10.977 16.306)" fill="none" stroke="#638b5d" stroke-width="1.2"/>
    <line id="Line_4137" data-name="Line 4137" x1="3.554" y2="3.3" transform="translate(0.382 38.915)" fill="none" stroke="#638b5d" stroke-width="1.2"/>
  </g>
</svg>
