<svg xmlns="http://www.w3.org/2000/svg" width="55.503" height="56.188" viewBox="0 0 55.503 56.188">
  <g id="Group_91197" data-name="Group 91197" transform="translate(0.321 0.002)">
    <g id="Group_90957" data-name="Group 90957">
      <path id="Path_125081" data-name="Path 125081" d="M40.981,71.9a18.964,18.964,0,0,0,10.107-5.673A14.644,14.644,0,0,0,55,56.378V52.567a5.186,5.186,0,0,0-1.877-3.915,6.961,6.961,0,0,0-4.533-1.621h-3.8M33.343,78.862A21.975,21.975,0,0,0,40.981,71.9l1.763-3.193a8.967,8.967,0,0,0,.493-1.028,22.128,22.128,0,0,0,1.551-8.191V49.8M12.043,78.862A22.775,22.775,0,0,1,.5,58.9V45.648A4.152,4.152,0,0,1,4.652,41.5H40.635a4.152,4.152,0,0,1,4.152,4.152V49.8h.2m0,.008L48.56,49.8a3.479,3.479,0,0,1,2.269.8,2.591,2.591,0,0,1,.945,1.954l.014,3.811a11.9,11.9,0,0,1-2.256,6.96,14.708,14.708,0,0,1-6.159,4.9l-.478.244" transform="translate(-0.32 -26.608)" fill="none" stroke="#fff" stroke-width="1"/>
      <path id="Path_125082" data-name="Path 125082" d="M81,0a4,4,0,0,1-.666,2.6,4.883,4.883,0,0,0,0,6.574A2.125,2.125,0,0,1,81,10.738c0,.094,0,1.361,0,1.361" transform="translate(-50.7 -0.002)" fill="none" stroke="#fff" stroke-width="1"/>
      <path id="Path_125083" data-name="Path 125083" d="M63,0a4,4,0,0,1-.666,2.6,4.883,4.883,0,0,0,0,6.574A2.125,2.125,0,0,1,63,10.738c0,.094,0,1.361,0,1.361" transform="translate(-39.158 -0.002)" fill="none" stroke="#fff" stroke-width="1"/>
      <path id="Path_125084" data-name="Path 125084" d="M45,0a4,4,0,0,1-.666,2.6,4.883,4.883,0,0,0,0,6.574A2.125,2.125,0,0,1,45,10.738c0,.094,0,1.361,0,1.361" transform="translate(-27.616 -0.002)" fill="none" stroke="#fff" stroke-width="1"/>
      <path id="Path_125085" data-name="Path 125085" d="M44.391,149.105H2.917a1.709,1.709,0,0,1,0-3.417H44.391a1.709,1.709,0,0,1,0,3.417Z" transform="translate(-0.775 -93.42)" fill="none" stroke="#fff" stroke-width="1"/>
    </g>
  </g>
</svg>
