<svg xmlns="http://www.w3.org/2000/svg" xmlns:xlink="http://www.w3.org/1999/xlink" width="674.739" height="205.316" viewBox="0 0 674.739 205.316">
  <defs>
    <clipPath id="clip-path">
      <path id="Rectangle_5880" data-name="Rectangle 5880" d="M.034,0H82.617a.034.034,0,0,1,.034.034V7.046a.033.033,0,0,1-.033.033H.034A.034.034,0,0,1,0,7.045V.034A.034.034,0,0,1,.034,0Z" fill="none"/>
    </clipPath>
    <clipPath id="clip-path-2">
      <rect width="311.227" height="4.227" fill="none"/>
    </clipPath>
  </defs>
  <g id="Group_90968" data-name="Group 90968" transform="translate(89.031 45)">
    <g id="Group_90964" data-name="Group 90964" transform="translate(11.867 -44)">
      <g id="Group_90962" data-name="Group 90962" transform="translate(-91.898 0)">
        <g id="Group_90959" data-name="Group 90959" transform="translate(0 0)">
          <g id="Group_90965" data-name="Group 90965">
            <path id="Path_125253" data-name="Path 125253" d="M167.5,203.408H96.747a33.484,33.484,0,0,1-33.484-33.486v-.01a33.489,33.489,0,0,1,33.483-33.478h36.366c18.793,0,34.546-15.38,34.17-34.167a33.486,33.486,0,0,0-33.478-32.8H48.5A33.5,33.5,0,0,1,15,35.979v-.01A33.484,33.484,0,0,1,48.483,2.483L123,1" transform="translate(-23 -1)" fill="none" stroke="#638b5d" stroke-width="2"/>
          </g>
        </g>
        <g id="Group_90961" data-name="Group 90961" transform="translate(18.717 29.118)">
          <g id="Group_90960" data-name="Group 90960" clip-path="url(#clip-path)">
            <path id="Path_125254" data-name="Path 125254" d="M101.5,37.083a3.54,3.54,0,1,0,3.54-3.539h0a3.539,3.539,0,0,0-3.54,3.538Z" transform="translate(-25.927 -33.544)" fill="#638b5d"/>
            <path id="Path_125255" data-name="Path 125255" d="M126.961,37.083a3.54,3.54,0,1,0,3.54-3.539h0a3.54,3.54,0,0,0-3.54,3.539" transform="translate(-74.171 -33.544)" fill="#638b5d"/>
            <path id="Path_125256" data-name="Path 125256" d="M155.5,37.083a3.54,3.54,0,1,0,3.54-3.539h0a3.539,3.539,0,0,0-3.54,3.538Z" transform="translate(-128.243 -33.544)" fill="#638b5d"/>
            <path id="Path_125257" data-name="Path 125257" d="M180.961,37.083a3.54,3.54,0,1,0,3.54-3.539h0a3.54,3.54,0,0,0-3.54,3.539" transform="translate(-176.486 -33.544)" fill="#638b5d"/>
          </g>
        </g>
      </g>
      <g id="Repeat_Grid_74" data-name="Repeat Grid 74" transform="translate(90.105 199.076)" clip-path="url(#clip-path-2)">
        <g transform="translate(-219 -156.516)">
          <path id="Path_125249" data-name="Path 125249" d="M0,1.763V3.825a13.087,13.087,0,0,0,8.739-.819,10.866,10.866,0,0,1,9.263,0,13.074,13.074,0,0,0,11.029,0,10.84,10.84,0,0,1,9.252,0,13.074,13.074,0,0,0,11.029,0,10.84,10.84,0,0,1,9.252,0,13.074,13.074,0,0,0,11.029,0,10.866,10.866,0,0,1,9.263,0,13.074,13.074,0,0,0,11.029,0,10.815,10.815,0,0,1,9.24,0,13.1,13.1,0,0,0,11.04,0,10.84,10.84,0,0,1,9.252,0,13.074,13.074,0,0,0,11.029,0,10.754,10.754,0,0,1,3.783-1V.03a12.916,12.916,0,0,0-4.683,1.191,10.84,10.84,0,0,1-9.251,0,13.074,13.074,0,0,0-11.029,0,10.84,10.84,0,0,1-9.252,0,13.074,13.074,0,0,0-11.029,0,10.84,10.84,0,0,1-9.251,0,13.074,13.074,0,0,0-11.029,0,10.866,10.866,0,0,1-9.263,0,13.048,13.048,0,0,0-11.017,0,10.866,10.866,0,0,1-9.263,0,13.074,13.074,0,0,0-11.029,0,10.84,10.84,0,0,1-9.251,0,13.074,13.074,0,0,0-11.029,0A10.889,10.889,0,0,1,0,1.763" transform="translate(219 156.516)" fill="#638b5d"/>
        </g>
        <g transform="translate(-99 -156.516)">
          <path id="Path_125249-2" data-name="Path 125249" d="M0,1.763V3.825a13.087,13.087,0,0,0,8.739-.819,10.866,10.866,0,0,1,9.263,0,13.074,13.074,0,0,0,11.029,0,10.84,10.84,0,0,1,9.252,0,13.074,13.074,0,0,0,11.029,0,10.84,10.84,0,0,1,9.252,0,13.074,13.074,0,0,0,11.029,0,10.866,10.866,0,0,1,9.263,0,13.074,13.074,0,0,0,11.029,0,10.815,10.815,0,0,1,9.24,0,13.1,13.1,0,0,0,11.04,0,10.84,10.84,0,0,1,9.252,0,13.074,13.074,0,0,0,11.029,0,10.754,10.754,0,0,1,3.783-1V.03a12.916,12.916,0,0,0-4.683,1.191,10.84,10.84,0,0,1-9.251,0,13.074,13.074,0,0,0-11.029,0,10.84,10.84,0,0,1-9.252,0,13.074,13.074,0,0,0-11.029,0,10.84,10.84,0,0,1-9.251,0,13.074,13.074,0,0,0-11.029,0,10.866,10.866,0,0,1-9.263,0,13.048,13.048,0,0,0-11.017,0,10.866,10.866,0,0,1-9.263,0,13.074,13.074,0,0,0-11.029,0,10.84,10.84,0,0,1-9.251,0,13.074,13.074,0,0,0-11.029,0A10.889,10.889,0,0,1,0,1.763" transform="translate(219 156.516)" fill="#638b5d"/>
        </g>
        <g transform="translate(21 -156.516)">
          <path id="Path_125249-3" data-name="Path 125249" d="M0,1.763V3.825a13.087,13.087,0,0,0,8.739-.819,10.866,10.866,0,0,1,9.263,0,13.074,13.074,0,0,0,11.029,0,10.84,10.84,0,0,1,9.252,0,13.074,13.074,0,0,0,11.029,0,10.84,10.84,0,0,1,9.252,0,13.074,13.074,0,0,0,11.029,0,10.866,10.866,0,0,1,9.263,0,13.074,13.074,0,0,0,11.029,0,10.815,10.815,0,0,1,9.24,0,13.1,13.1,0,0,0,11.04,0,10.84,10.84,0,0,1,9.252,0,13.074,13.074,0,0,0,11.029,0,10.754,10.754,0,0,1,3.783-1V.03a12.916,12.916,0,0,0-4.683,1.191,10.84,10.84,0,0,1-9.251,0,13.074,13.074,0,0,0-11.029,0,10.84,10.84,0,0,1-9.252,0,13.074,13.074,0,0,0-11.029,0,10.84,10.84,0,0,1-9.251,0,13.074,13.074,0,0,0-11.029,0,10.866,10.866,0,0,1-9.263,0,13.048,13.048,0,0,0-11.017,0,10.866,10.866,0,0,1-9.263,0,13.074,13.074,0,0,0-11.029,0,10.84,10.84,0,0,1-9.251,0,13.074,13.074,0,0,0-11.029,0A10.889,10.889,0,0,1,0,1.763" transform="translate(219 156.516)" fill="#638b5d"/>
        </g>
      </g>
    </g>
    <g id="Group_90946" data-name="Group 90946" transform="translate(167.105 -1.44)">
      <g id="Group_90943" data-name="Group 90943" transform="translate(257.224 89.156)">
        <g id="Group_90942" data-name="Group 90942" transform="translate(0 18)">
          <path id="Path_124964" data-name="Path 124964" d="M500.988,524.352a.86.86,0,0,1-.837-.838,1.073,1.073,0,0,1,.067-.318.985.985,0,0,1,.184-.27.7.7,0,0,1,.268-.165.834.834,0,0,1,.637,0,.854.854,0,0,1,.268.165,1.58,1.58,0,0,1,.184.27,1.046,1.046,0,0,1,.049.318.8.8,0,0,1-.234.586.785.785,0,0,1-.586.245" transform="translate(-482.818 -493.053)" fill="#638b5d"/>
          <g id="Group_90945" data-name="Group 90945" transform="translate(41.893 30.198)">
            <path id="Path_124973" data-name="Path 124973" d="M445.215,528.331a3.956,3.956,0,1,1-3.956-3.955h0a3.955,3.955,0,0,1,3.956,3.955Z" transform="translate(-437.303 -524.105)" fill="#638b5d"/>
            <path id="Path_124974" data-name="Path 124974" d="M348.417,528.331a3.956,3.956,0,1,1-3.956-3.955h0A3.956,3.956,0,0,1,348.417,528.331Z" transform="translate(-293.043 -524.105)" fill="#638b5d"/>
            <ellipse id="Ellipse_999" data-name="Ellipse 999" cx="3.955" cy="3.955" rx="3.955" ry="3.955" transform="translate(98.588 8.452) rotate(-175.935)" fill="#638b5d"/>
          </g>
          <path id="Path_124977" data-name="Path 124977" d="M307.377,531.946a.83.83,0,0,1-.831-.829h0V507.385a.831.831,0,0,1,1.661,0v23.731a.83.83,0,0,1-.831.83" transform="translate(-194.29 -484.828)" fill="#638b5d"/>
          <path id="Path_124978" data-name="Path 124978" d="M210.578,523.206c-.459,0-.831-.244-.831-.544V507.1c0-.3.377-.543.836-.541s.823.243.826.541v15.561c0,.3-.371.544-.83.544Z" transform="translate(-50.029 -476.088)" fill="#638b5d"/>
          <g id="Group_90949" data-name="Group 90949" transform="translate(0 0)">
            <g id="Group_90950" data-name="Group 90950" transform="translate(0 0)">
              <path id="Path_125247" data-name="Path 125247" d="M-152.036.1a85.3,85.3,0,0,1-25.837,52.938l-.724.653,160.621-.653" transform="translate(178.597 -0.101)" fill="none" stroke="#638b5d" stroke-width="2"/>
            </g>
          </g>
        </g>
      </g>
      <g id="Group_90952" data-name="Group 90952" transform="translate(-195.132)">
        <g id="Group_90963" data-name="Group 90963" transform="translate(0 0)">
          <path id="Path_125248" data-name="Path 125248" d="M0,20.986a.985.985,0,0,0,.978.99,8.415,8.415,0,0,1,4.294,1.031,11.3,11.3,0,0,0,10.215,0,9.393,9.393,0,0,1,8.578,0,11.281,11.281,0,0,0,10.2,0,9.436,9.436,0,0,1,8.567,0,11.281,11.281,0,0,0,10.2,0,9.436,9.436,0,0,1,8.567,0,11.281,11.281,0,0,0,10.2,0,9.436,9.436,0,0,1,8.567,0,11.281,11.281,0,0,0,10.2,0,9.414,9.414,0,0,1,8.557,0,11.259,11.259,0,0,0,10.194,0,9.436,9.436,0,0,1,8.567,0,11.281,11.281,0,0,0,10.2,0,9.436,9.436,0,0,1,8.567,0,11.281,11.281,0,0,0,10.2,0,9.414,9.414,0,0,1,8.557,0,11.281,11.281,0,0,0,10.2,0,9.436,9.436,0,0,1,8.567,0,11.259,11.259,0,0,0,10.194,0,9.436,9.436,0,0,1,8.567,0,11.259,11.259,0,0,0,10.194,0,9.436,9.436,0,0,1,8.567,0,11.259,11.259,0,0,0,10.194,0,9.414,9.414,0,0,1,8.557,0,11.259,11.259,0,0,0,10.194,0,9.436,9.436,0,0,1,8.567,0,11.259,11.259,0,0,0,10.194,0,9.414,9.414,0,0,1,8.557,0,11.259,11.259,0,0,0,10.194,0,9.414,9.414,0,0,1,8.557,0,11.259,11.259,0,0,0,10.194,0,9.414,9.414,0,0,1,8.557,0,11.259,11.259,0,0,0,10.194,0,9.414,9.414,0,0,1,8.557,0,11.259,11.259,0,0,0,10.194,0,8.712,8.712,0,0,1,2.19-.787V20.188a11.438,11.438,0,0,0-3.019,1.032,9.349,9.349,0,0,1-8.557,0,11.259,11.259,0,0,0-10.194,0,9.349,9.349,0,0,1-8.557,0,11.259,11.259,0,0,0-10.194,0,9.349,9.349,0,0,1-8.557,0,11.259,11.259,0,0,0-10.194,0,9.349,9.349,0,0,1-8.557,0,11.259,11.259,0,0,0-10.194,0,9.349,9.349,0,0,1-8.557,0,11.259,11.259,0,0,0-10.194,0,9.371,9.371,0,0,1-8.567,0,11.259,11.259,0,0,0-10.194,0,9.349,9.349,0,0,1-8.557,0,11.259,11.259,0,0,0-10.194,0,9.371,9.371,0,0,1-8.567,0,11.259,11.259,0,0,0-10.194,0,9.371,9.371,0,0,1-8.567,0,11.259,11.259,0,0,0-10.194,0,9.371,9.371,0,0,1-8.567,0,11.259,11.259,0,0,0-10.194,0,9.371,9.371,0,0,1-8.567,0,11.281,11.281,0,0,0-10.2,0,9.371,9.371,0,0,1-8.567,0,11.281,11.281,0,0,0-10.2,0,9.349,9.349,0,0,1-8.557,0,11.259,11.259,0,0,0-10.194,0,9.371,9.371,0,0,1-8.567,0,11.281,11.281,0,0,0-10.2,0,9.371,9.371,0,0,1-8.567,0,11.281,11.281,0,0,0-10.2,0,9.371,9.371,0,0,1-8.567,0,11.281,11.281,0,0,0-10.2,0,9.371,9.371,0,0,1-8.567,0,11.3,11.3,0,0,0-10.215,0,9.393,9.393,0,0,1-8.578,0A10.436,10.436,0,0,0,.978,20H.914A1,1,0,0,0,0,20.986" transform="translate(16.601 106.258)" fill="#638b5d"/>
        </g>
      </g>
    </g>
  </g>
</svg>
