<svg xmlns="http://www.w3.org/2000/svg" width="55.018" height="51.948" viewBox="0 0 55.018 51.948">
  <g id="Group_91193" data-name="Group 91193" transform="translate(0.327 0.327)">
    <g id="Group_90907" data-name="Group 90907" transform="translate(0.173 0.173)">
      <path id="Path_125079" data-name="Path 125079" d="M63.043,95.118l-5.525,25.6H23.323l-4.458-25.6" transform="translate(-13.945 -69.769)" fill="none" stroke="#fff" stroke-width="1"/>
      <path id="Rectangle_5865" data-name="Rectangle 5865" d="M4.461,0h45.1a4.46,4.46,0,0,1,4.46,4.46v0a4.46,4.46,0,0,1-4.46,4.46H4.46A4.46,4.46,0,0,1,0,4.461v0A4.461,4.461,0,0,1,4.461,0Z" transform="translate(0 16.243)" fill="none" stroke="#fff" stroke-width="1"/>
      <line id="Line_4098" data-name="Line 4098" x2="2.399" y2="19.134" transform="translate(13.217 27.568)" fill="none" stroke="#fff" stroke-width="1"/>
      <line id="Line_4099" data-name="Line 4099" x2="1.625" y2="19.004" transform="translate(19.9 27.698)" fill="none" stroke="#fff" stroke-width="1"/>
      <line id="Line_4100" data-name="Line 4100" x1="2.399" y2="19.134" transform="translate(38.401 27.568)" fill="none" stroke="#fff" stroke-width="1"/>
      <line id="Line_4101" data-name="Line 4101" x1="1.625" y2="19.004" transform="translate(32.492 27.698)" fill="none" stroke="#fff" stroke-width="1"/>
      <line id="Line_4102" data-name="Line 4102" y2="18.79" transform="translate(27.009 27.829)" fill="none" stroke="#fff" stroke-width="1"/>
      <path id="Path_125080" data-name="Path 125080" d="M36.366,16.6V4.055A3.559,3.559,0,0,1,39.922.5H62.67a3.559,3.559,0,0,1,3.555,3.555V16.6" transform="translate(-24.436 -0.5)" fill="none" stroke="#fff" stroke-width="1"/>
    </g>
  </g>
</svg>
