<svg xmlns="http://www.w3.org/2000/svg" width="74.663" height="56.949" viewBox="0 0 74.663 56.949">
  <g id="Group_91196" data-name="Group 91196" transform="translate(0.265 0.264)">
    <g id="Group_90972" data-name="Group 90972" transform="translate(0 0)">
      <path id="Path_125239" data-name="Path 125239" d="M46.116,63.316l-17.589-.753h0a4.284,4.284,0,0,1-3.793-2.454,4.918,4.918,0,0,1-.24-2.01,4.012,4.012,0,0,1,4.094-3.26h0l9.23.282a21.418,21.418,0,0,0,6.366-1.2,26.925,26.925,0,0,1,8.043-1.267,36.213,36.213,0,0,1,10.937,2.333V51.762h0a.856.856,0,0,1,.857-.856H73.3a.857.857,0,0,1,.857.856V77.243h0a.857.857,0,0,1-.857.856H64.02a.856.856,0,0,1-.857-.856v-2.9c-11.918-2.307-18.841,1.26-29,1.26h0c-1.737,0-3.952-.954-6.667-2.362s-5.852-3.317-9.029-5.369c-6.354-4.1-12.874-8.783-16.3-11.1h0A3.717,3.717,0,0,1,.526,54.116a4.2,4.2,0,0,1,.742-2.849A4.554,4.554,0,0,1,5.14,49.354h0a5.8,5.8,0,0,1,2.405.6L24.491,58.1m42.337-7.117V78.319m3.707-27.338V78.319M63.164,54.986V74.338" transform="translate(-0.263 -21.914)" fill="none" stroke="#fff" stroke-width="1"/>
      <g id="Group_90973" data-name="Group 90973">
        <line id="Line_4121" data-name="Line 4121" y2="8.426" transform="translate(25.502 0.236)" fill="none" stroke="#fff" stroke-linecap="round" stroke-width="1"/>
        <line id="Line_4122" data-name="Line 4122" x1="8.426" transform="translate(21.289 4.449)" fill="none" stroke="#fff" stroke-linecap="round" stroke-width="1"/>
      </g>
      <g id="Group_90974" data-name="Group 90974">
        <line id="Line_4123" data-name="Line 4123" y2="8.426" transform="translate(39.64 0.236)" fill="none" stroke="#fff" stroke-linecap="round" stroke-width="1"/>
        <line id="Line_4124" data-name="Line 4124" x1="8.426" transform="translate(35.427 4.449)" fill="none" stroke="#fff" stroke-linecap="round" stroke-width="1"/>
      </g>
      <g id="Group_90975" data-name="Group 90975">
        <line id="Line_4125" data-name="Line 4125" y2="13.334" transform="translate(32.359 10.943)" fill="none" stroke="#fff" stroke-linecap="round" stroke-width="1"/>
        <line id="Line_4126" data-name="Line 4126" x1="13.061" transform="translate(25.829 17.74)" fill="none" stroke="#fff" stroke-linecap="round" stroke-width="1"/>
      </g>
    </g>
  </g>
</svg>
