<svg xmlns="http://www.w3.org/2000/svg" xmlns:xlink="http://www.w3.org/1999/xlink" width="760.122" height="272.079" viewBox="0 0 760.122 272.079">
  <defs>
    <clipPath id="clip-path">
      <rect id="Rectangle_5853" data-name="Rectangle 5853" width="66.45" height="29.68" fill="#fff" stroke="#638b5d" stroke-width="1"/>
    </clipPath>
  </defs>
  <g id="Group_91154" data-name="Group 91154" transform="translate(0 -88.204)">
    <g id="Group_90855" data-name="Group 90855" transform="translate(42.623 89.203)">
      <g id="Group_90863" data-name="Group 90863" transform="translate(0 0)">
        <path id="Path_125046" data-name="Path 125046" d="M536.9,4.482,39.957.5C12.375.5-9.984,27.624-9.984,61.083s22.359,60.582,49.941,60.582H647.4c27.582,0,49.942,27.124,49.942,60.583v-.085c0,33.459-22.36,60.583-49.942,60.583l-666.557,4.037" transform="translate(19.161 -0.5)" fill="none" stroke="#638b5d" stroke-linecap="round" stroke-width="2" stroke-dasharray="0 5"/>
      </g>
    </g>
    <g id="Group_90871" data-name="Group 90871" transform="translate(0 332.219) rotate(-19)">
      <g id="Group_90871-2" data-name="Group 90871" transform="translate(0)" clip-path="url(#clip-path)">
        <path id="Path_125047" data-name="Path 125047" d="M0,0,66.341,9.23,53.379,17.792Z" transform="translate(0.018 0.033)" fill="#fff" stroke="#638b5d" stroke-miterlimit="10" stroke-width="1"/>
        <path id="Path_125048" data-name="Path 125048" d="M0,0,53.379,17.792l2.588,8.332Z" transform="translate(0.018 0.033)" fill="#fff" stroke="#638b5d" stroke-miterlimit="10" stroke-width="1"/>
        <path id="Path_125049" data-name="Path 125049" d="M0,0,47.8,29.587l-.088-7.326Z" transform="translate(0.018 0.033)" fill="#fff" stroke="#638b5d" stroke-miterlimit="10" stroke-width="1"/>
      </g>
    </g>
  </g>
</svg>
