<svg id="Group_90209" data-name="Group 90209" xmlns="http://www.w3.org/2000/svg" xmlns:xlink="http://www.w3.org/1999/xlink" width="115.45" height="34.341" viewBox="0 0 115.45 34.341">
  <defs>
    <clipPath id="clip-path">
      <rect id="Rectangle_5596" data-name="Rectangle 5596" width="115.45" height="34.341" fill="none"/>
    </clipPath>
  </defs>
  <g id="Group_90183" data-name="Group 90183">
    <g id="Group_90182" data-name="Group 90182" clip-path="url(#clip-path)">
      <path id="Path_124227" data-name="Path 124227" d="M525.754,32.331a50.354,50.354,0,0,0-3.673-5.984,53.575,53.575,0,0,0-3.7-4.929c-.535-.632-1.536,1.288-1.767,1.662-.45.726-1,1.772-.387,2.567.938,1.218,1.888,2.43,2.793,3.673a36.263,36.263,0,0,1,3.29,5.281,21.175,21.175,0,0,1,.88,2.049,12.546,12.546,0,0,1,.672,2.64,6.139,6.139,0,0,1-1.2,4.929,5.748,5.748,0,0,1-2.891,1.955,7.016,7.016,0,0,0,4.519-1.5,8.1,8.1,0,0,0,2.914-6.459c0-.034,0-.067,0-.1a12.718,12.718,0,0,0-1.445-5.782" transform="translate(-421.225 -17.383)" fill="#00acc4" fill-rule="evenodd"/>
      <path id="Path_124228" data-name="Path 124228" d="M500.2,53.53c-1.223-1.467-2.369-3-3.6-4.456-.687-.815-.847-.775-1.357.215a27.674,27.674,0,0,0-2.992,8.989c-.038.282-.063.562-.081.84a8.8,8.8,0,0,0,.289,2.958,7.216,7.216,0,0,0,1.673,2.961,10.624,10.624,0,0,0,2.219,1.812c-.034-.081-.067-.164-.094-.246a7.351,7.351,0,0,1,.054-4.2,18.925,18.925,0,0,1,1.521-3.816,29.7,29.7,0,0,1,2.257-3.664s.007-.009.009-.011.013-.027.022-.04c.264-.45.524-.813.081-1.344" transform="translate(-401.796 -39.596)" fill="#c0d84d" fill-rule="evenodd"/>
      <path id="Path_124229" data-name="Path 124229" d="M522.578,88.861q-.279-.568-.564-1.129-.3-.584-.6-1.16c-.437-.815-.529-.844-1.109-.056-.62.833-1.209,1.659-1.733,2.522a15.713,15.713,0,0,0-1.433,2.952c-.13.372-.255.759-.358,1.156a6.206,6.206,0,0,0-.045,3.59,3.357,3.357,0,0,0,.213.495,2.979,2.979,0,0,0,1.444,1.315l.06.027a2.223,2.223,0,0,1-.049-.26,4.6,4.6,0,0,1,.56-2.6,16.47,16.47,0,0,1,2.013-2.918l.034-.043c.531-.652,1.1-1.281,1.6-1.962a1.77,1.77,0,0,0-.025-1.933" transform="translate(-421.659 -70.164)" fill="#1e439b" fill-rule="evenodd"/>
      <path id="Path_124230" data-name="Path 124230" d="M542.651,19.134a12.094,12.094,0,0,0-.511-2.963,30.417,30.417,0,0,0-1.386-3.57c-.067-.154-.141-.309-.213-.461-.47-1.017-.985-2.015-1.536-2.992a52.745,52.745,0,0,0-3.046-4.669,0,0,0,0,1,0,0c-.932-1.3-1.885-2.564-2.768-3.76-.235-.32-.555-.835-1.012-.692a2.1,2.1,0,0,0-.8.589,12.3,12.3,0,0,0-.79.967c-.358.457-.945,1.268-.455,1.83C531.432,4.9,535.79,10,538,14.87a14.19,14.19,0,0,1,1.5,5.984c0,.025,0,.054,0,.078a8.678,8.678,0,0,1-3.149,6.911,7.707,7.707,0,0,1-4.705,1.63c-.038,0-.076,0-.112,0a5.414,5.414,0,0,0,1.393.148,10.286,10.286,0,0,0,6.9-2.987,9.924,9.924,0,0,0,2.833-6.971c0-.175-.011-.352-.018-.526" transform="translate(-432.649 0)" fill="#1e439b" fill-rule="evenodd"/>
      <path id="Path_124231" data-name="Path 124231" d="M493.117,37.43a15.167,15.167,0,0,0-1.341-5.763,15.338,15.338,0,0,0-3.4-4.754,15.153,15.153,0,0,0-4.865-3.126,14.019,14.019,0,0,0-2.206-.682q.078.1.148.2a13.572,13.572,0,0,1,1.992.644,14.555,14.555,0,1,1-11.17,0c.238-.1.48-.187.723-.271.032-.04.064-.079.1-.118s.049-.077.076-.113c-.324.1-.646.215-.962.344a15.167,15.167,0,0,0-4.864,3.127,15.363,15.363,0,0,0-3.394,4.754,15.159,15.159,0,0,0-1.339,5.761,15.223,15.223,0,0,0,9.225,14.539,15.3,15.3,0,0,0,12.045,0,15.376,15.376,0,0,0,5.03-3.487,15.191,15.191,0,0,0,3.221-5.14,15.359,15.359,0,0,0,.979-5.913" transform="translate(-377.675 -18.864)" fill="#1e439b" fill-rule="evenodd"/>
    </g>
  </g>
  <g id="Group_90185" data-name="Group 90185">
    <g id="Group_90184" data-name="Group 90184" clip-path="url(#clip-path)">
      <path id="Path_124232" data-name="Path 124232" d="M12.28,27.093V30.15h1.886v5.3c0,2.038-.611,2.878-2.293,3.337l-.739.2-1.5-10.7c-.1-.84-.535-1.2-1.173-1.2h-4.3V30.15h1.91l1.375,9.858-2.06.564L4,40.951l.739,3.008,3.9-1.048,3.587-.965c3.924-1.046,5.91-2.6,5.91-6.4V27.093Z" transform="translate(-3.266 -22.119)" fill="#1e439b" fill-rule="evenodd"/>
      <path id="Path_124233" data-name="Path 124233" d="M102.221,39.321V32.085c0-3.693-1.375-4.992-5.222-4.992H90.86V30.15h5.3c1.527,0,2.089.56,2.089,2.217v6.954H90.86v3.057h13.271V39.321Z" transform="translate(-74.178 -22.119)" fill="#1e439b" fill-rule="evenodd"/>
      <path id="Path_124234" data-name="Path 124234" d="M184.369,27.093v9.374c0,1.91-.943,2.853-2.954,2.853h-4.663c-2.013,0-2.929-.943-2.929-2.853V27.093h-3.872V36.85c0,3.668,2.038,5.527,6.241,5.527h5.782c4.2,0,6.268-1.859,6.268-5.527V27.093Z" transform="translate(-138.748 -22.119)" fill="#1e439b" fill-rule="evenodd"/>
      <path id="Path_124235" data-name="Path 124235" d="M209.215,27.093v8.559c0,.712.307,1.044.943,1.044h2.929v-9.6Z" transform="translate(-170.804 -22.119)" fill="#1e439b" fill-rule="evenodd"/>
      <path id="Path_124236" data-name="Path 124236" d="M312.859,27.093V30.15h1.861v5.91h3.973V27.093Z" transform="translate(-255.419 -22.119)" fill="#1e439b" fill-rule="evenodd"/>
      <path id="Path_124237" data-name="Path 124237" d="M362.212,26.4c-2.573,0-3.9.867-5.095,3.617l-1.07-3.489h-3.924l2.7,7.923-2.6,7.361h4.024l3.643-10.342c.585-1.657,1.2-2.013,2.013-2.013,1.1,0,1.6.688,1.6,2.573v6.725h-3.769V41.81h7.641V32.487c0-4.483-1.807-6.089-5.171-6.089" transform="translate(-287.474 -21.551)" fill="#1e439b" fill-rule="evenodd"/>
    </g>
  </g>
  <g id="Group_90187" data-name="Group 90187">
    <g id="Group_90186" data-name="Group 90186" clip-path="url(#clip-path)">
      <path id="Path_124238" data-name="Path 124238" d="M2.587,136.909a1.241,1.241,0,0,0-1.306.927l-.275-.9H0l.692,2.033-.665,1.888H1.059l.934-2.654c.15-.423.307-.515.515-.515.282,0,.412.177.412.661v1.724H1.953v.784H3.915V138.47c0-1.149-.464-1.561-1.328-1.561" transform="translate(0 -111.773)" fill="#1e439b" fill-rule="evenodd"/>
      <path id="Path_124239" data-name="Path 124239" d="M24.478,133.531l-.352,1.841h.815l.224-1.841Z" transform="translate(-19.697 -109.015)" fill="#1e439b" fill-rule="evenodd"/>
      <path id="Path_124240" data-name="Path 124240" d="M30.768,133.531l-.347,1.841h.811l.222-1.841Z" transform="translate(-24.835 -109.015)" fill="#1e439b" fill-rule="evenodd"/>
      <path id="Path_124241" data-name="Path 124241" d="M39.157,137.08v.784h.481v1.359c0,.524-.157.739-.587.858l-.19.051-.385-2.743c-.025-.217-.137-.309-.3-.309h-1.1v.784h.49l.352,2.531-.882.24.19.773,1.922-.517c1.005-.266,1.516-.665,1.516-1.639v-2.17Z" transform="translate(-30.233 -111.912)" fill="#1e439b" fill-rule="evenodd"/>
      <path id="Path_124242" data-name="Path 124242" d="M62.221,140.218v-1.857c0-.947-.354-1.281-1.341-1.281H59.305v.784h1.359c.392,0,.535.146.535.569v1.785H59.305V141h3.4v-.784Z" transform="translate(-48.417 -111.912)" fill="#1e439b" fill-rule="evenodd"/>
      <path id="Path_124243" data-name="Path 124243" d="M90.506,140.218v-1.857c0-.947-.352-1.281-1.339-1.281H87.592v.784h1.359c.392,0,.535.146.535.569v1.785H87.592V141H91v-.784Z" transform="translate(-71.51 -111.912)" fill="#1e439b" fill-rule="evenodd"/>
      <path id="Path_124244" data-name="Path 124244" d="M106.132,137.08v.784h.522V141h1.019V137.08Z" transform="translate(-86.646 -111.913)" fill="#1e439b" fill-rule="evenodd"/>
      <path id="Path_124245" data-name="Path 124245" d="M117.269,137.08v.784h.477v1.516h1.019v-2.3Z" transform="translate(-95.738 -111.913)" fill="#1e439b" fill-rule="evenodd"/>
      <path id="Path_124246" data-name="Path 124246" d="M130.782,140.218v-1.857c0-.947-.354-1.281-1.339-1.281h-1.574v.784h1.359c.392,0,.535.146.535.569v1.785h-1.895V141h3.4v-.784Z" transform="translate(-104.392 -111.912)" fill="#1e439b" fill-rule="evenodd"/>
      <path id="Path_124247" data-name="Path 124247" d="M146.944,134.182v-.652h-.974v1.436h1.908l-1.332,3.138H147.6l1.339-3.138v-.784Z" transform="translate(-119.17 -109.014)" fill="#1e439b" fill-rule="evenodd"/>
      <path id="Path_124248" data-name="Path 124248" d="M163.693,137.08v.784h.522V141h1.019V137.08Z" transform="translate(-133.639 -111.913)" fill="#1e439b" fill-rule="evenodd"/>
      <path id="Path_124249" data-name="Path 124249" d="M186.215,137.081h-2.64v.784h.374V141h3.507V138.3c0-.849-.379-1.216-1.241-1.216m.249,3.138h-1.523v-2.354h.988c.365,0,.535.184.535.6Z" transform="translate(-149.871 -111.913)" fill="#1e439b" fill-rule="evenodd"/>
      <path id="Path_124250" data-name="Path 124250" d="M206.422,137.08v.784h.477v1.516h1.019v-2.3Z" transform="translate(-168.523 -111.913)" fill="#1e439b" fill-rule="evenodd"/>
      <path id="Path_124251" data-name="Path 124251" d="M219.073,136.909a1.242,1.242,0,0,0-1.308.927l-.273-.9h-1.008l.694,2.033-.667,1.888h1.032l.934-2.654c.15-.423.307-.515.517-.515.28,0,.41.177.41.661v1.724h-.965v.784h1.96V138.47c0-1.149-.464-1.561-1.326-1.561" transform="translate(-176.738 -111.773)" fill="#1e439b" fill-rule="evenodd"/>
      <path id="Path_124252" data-name="Path 124252" d="M240.513,134.182v-.652h-.974v1.436h1.908l-1.332,3.138h1.059l1.339-3.138v-.784Z" transform="translate(-195.56 -109.014)" fill="#1e439b" fill-rule="evenodd"/>
      <path id="Path_124253" data-name="Path 124253" d="M265.654,137.08v.784h.477v1.516h1.019v-2.3Z" transform="translate(-216.88 -111.913)" fill="#1e439b" fill-rule="evenodd"/>
      <path id="Path_124254" data-name="Path 124254" d="M277.105,137.08h-1.339v.784h1.156c.49,0,.692.249.692.824V141h1.026v-2.45c0-1.026-.47-1.471-1.534-1.471" transform="translate(-225.136 -111.912)" fill="#1e439b" fill-rule="evenodd"/>
      <path id="Path_124255" data-name="Path 124255" d="M293.233,137.08v.784h.522V141h1.019V137.08Z" transform="translate(-239.396 -111.913)" fill="#1e439b" fill-rule="evenodd"/>
      <path id="Path_124256" data-name="Path 124256" d="M304.113,137.08v.784h.838c-.282.125-.491.589-.354,1.263l.392,1.874h1l-.419-2.033c-.157-.757.1-1.1.542-1.1h.327v-.784Z" transform="translate(-248.279 -111.912)" fill="#1e439b" fill-rule="evenodd"/>
      <path id="Path_124257" data-name="Path 124257" d="M321.3,138.832v-1.751h-1.588v.746h.647v.9c0,.273-.065.443-.28.443-.163,0-.249-.105-.374-.293l-1.194-1.8h-1.046l.856,1.209a1.237,1.237,0,0,0-.378.045.827.827,0,0,0-.6.916V141h1.588v-.746h-.647v-.9c0-.275.067-.446.275-.446.164,0,.255.105.379.3l1.189,1.8h1.053l-.862-1.209a1.09,1.09,0,0,0,.385-.045.832.832,0,0,0,.593-.916" transform="translate(-259.084 -111.913)" fill="#1e439b" fill-rule="evenodd"/>
      <path id="Path_124258" data-name="Path 124258" d="M349.306,137.08v.784h1.769V141h1.019v-3.137h.47v-.784Z" transform="translate(-285.174 -111.913)" fill="#1e439b" fill-rule="evenodd"/>
      <path id="Path_124259" data-name="Path 124259" d="M368.615,137.08v.784h.477v1.516h1.021v-2.3Z" transform="translate(-300.938 -111.913)" fill="#1e439b" fill-rule="evenodd"/>
      <path id="Path_124260" data-name="Path 124260" d="M380.356,139.544v-1.333c0-.829-.282-1.131-1.026-1.131h-.842v.784h.529c.235,0,.32.105.32.394v.849c0,.743-.222.992-.862.992h-.249v.9h.3a.935.935,0,0,0,1.005-.726,2.784,2.784,0,0,0,.2.726h.9a4.416,4.416,0,0,1-.269-1.458" transform="translate(-308.785 -111.913)" fill="#1e439b" fill-rule="evenodd"/>
      <path id="Path_124261" data-name="Path 124261" d="M396.975,138.832v-1.751h-1.588v.746h.647v.9c0,.273-.065.443-.28.443-.163,0-.249-.105-.374-.293l-1.194-1.8h-1.046L394,138.29a1.238,1.238,0,0,0-.378.045.827.827,0,0,0-.6.916V141h1.588v-.746h-.647v-.9c0-.275.067-.446.275-.446.164,0,.255.105.379.3l1.189,1.8h1.053L396,139.793a1.089,1.089,0,0,0,.385-.045.832.832,0,0,0,.593-.916" transform="translate(-320.864 -111.913)" fill="#1e439b" fill-rule="evenodd"/>
      <path id="Path_124262" data-name="Path 124262" d="M416.243,137.08v.784h.477v2.354h-.681V141h1.38c.222,0,.32-.092.32-.3v-2.837h1.4V141h1.019V137.08Z" transform="translate(-339.655 -111.912)" fill="#1e439b" fill-rule="evenodd"/>
    </g>
  </g>
</svg>
