<svg xmlns="http://www.w3.org/2000/svg" xmlns:xlink="http://www.w3.org/1999/xlink" width="33.417" height="30.675" viewBox="0 0 33.417 30.675">
  <defs>
    <filter id="Path_124212" x="5.962" y="0" width="21.493" height="21.487" filterUnits="userSpaceOnUse">
      <feOffset dy="-3" input="SourceAlpha"/>
      <feGaussianBlur stdDeviation="3" result="blur"/>
      <feFlood flood-opacity="0.271"/>
      <feComposite operator="in" in2="blur"/>
      <feComposite in="SourceGraphic"/>
    </filter>
    <filter id="Path_124213" x="11.932" y="0.003" width="21.486" height="21.486" filterUnits="userSpaceOnUse">
      <feOffset dy="-3" input="SourceAlpha"/>
      <feGaussianBlur stdDeviation="3" result="blur-2"/>
      <feFlood flood-opacity="0.271"/>
      <feComposite operator="in" in2="blur-2"/>
      <feComposite in="SourceGraphic"/>
    </filter>
    <filter id="Path_124214" x="0" y="0.003" width="21.486" height="21.486" filterUnits="userSpaceOnUse">
      <feOffset dy="-3" input="SourceAlpha"/>
      <feGaussianBlur stdDeviation="3" result="blur-3"/>
      <feFlood flood-opacity="0.271"/>
      <feComposite operator="in" in2="blur-3"/>
      <feComposite in="SourceGraphic"/>
    </filter>
  </defs>
  <g id="Group_90066" data-name="Group 90066" transform="translate(-5.894 27.14)">
    <g id="Group_90062" data-name="Group 90062" transform="translate(8.703 -23.466)">
      <g id="Path_124211" data-name="Path 124211" transform="translate(-10 -10)" fill="none">
        <path d="M33.481,10H14.31A4.312,4.312,0,0,0,10,14.3V25.839a4.317,4.317,0,0,0,4.31,4.314l12.113,0,6.642,6.639a.719.719,0,0,0,1.227-.508l0-6.2a4.33,4.33,0,0,0,3.494-4.236V14.3a4.311,4.311,0,0,0-4.31-4.3Z" stroke="none"/>
        <path d="M 14.31026458740234 11.19999694824219 C 12.59525680541992 11.19999694824219 11.19999694824219 12.59207534790039 11.19999694824219 14.30316543579102 L 11.19999694824219 25.83863639831543 C 11.19999694824219 27.55574607849121 12.59525680541992 28.95271682739258 14.30999374389648 28.95271682739258 L 26.91985511779785 28.94987678527832 L 33.0936164855957 35.12045669555664 L 33.09777450561523 29.08729553222656 L 34.06817626953125 28.89871597290039 C 35.53010559082031 28.6146068572998 36.5911865234375 27.32847595214844 36.5911865234375 25.84058570861816 L 36.5911865234375 14.30355453491211 C 36.5911865234375 12.59246444702148 35.19592666625977 11.20038604736328 33.48092651367188 11.20038604736328 L 32.98347473144531 11.19999694824219 L 14.31026458740234 11.19999694824219 M 14.31026458740234 9.999996185302734 L 33.48092651367188 10.00038528442383 C 35.85723495483398 10.00038528442383 37.79118347167969 11.93000793457031 37.79118347167969 14.30355453491211 L 37.79118347167969 25.84058570861816 C 37.79118347167969 27.93258666992188 36.28315734863281 29.69070625305176 34.29709625244141 30.07667541503906 L 34.29281616210938 36.28091430664062 C 34.29242706298828 36.92112731933594 33.51835632324219 37.24159622192383 33.06545639038086 36.78893661499023 L 26.423095703125 30.14998626708984 L 14.31026458740234 30.1527156829834 C 11.93394470214844 30.1527156829834 9.999996185302734 28.21763610839844 9.999996185302734 25.83863639831543 L 9.999996185302734 14.30316543579102 C 9.999996185302734 11.92993545532227 11.93394470214844 9.999996185302734 14.31026458740234 9.999996185302734 Z" stroke="none" fill="#256693"/>
      </g>
      <g id="Group_90069" data-name="Group 90069">
        <g transform="matrix(1, 0, 0, 1, -2.81, -3.67)" filter="url(#Path_124212)">
          <path id="Path_124212-2" data-name="Path 124212" d="M172.326,121.512a1.744,1.744,0,1,0,1.748,1.741,1.744,1.744,0,0,0-1.748-1.741" transform="translate(-155.62 -109.51)" fill="#256693"/>
        </g>
        <g transform="matrix(1, 0, 0, 1, -2.81, -3.67)" filter="url(#Path_124213)">
          <path id="Path_124213-2" data-name="Path 124213" d="M234.316,123.269a1.743,1.743,0,1,1-1.743-1.743,1.743,1.743,0,0,1,1.743,1.743" transform="translate(-209.9 -109.52)" fill="#256693"/>
        </g>
        <g transform="matrix(1, 0, 0, 1, -2.81, -3.67)" filter="url(#Path_124214)">
          <path id="Path_124214-2" data-name="Path 124214" d="M113.9,123.269a1.743,1.743,0,1,1-1.743-1.743,1.743,1.743,0,0,1,1.743,1.743" transform="translate(-101.41 -109.52)" fill="#256693"/>
        </g>
      </g>
    </g>
  </g>
</svg>
