<svg id="print_icon" data-name="print icon" xmlns="http://www.w3.org/2000/svg" xmlns:xlink="http://www.w3.org/1999/xlink" width="24.807" height="19.137" viewBox="0 0 24.807 19.137">
  <defs>
    <clipPath id="clip-path">
      <rect id="Rectangle_5754" data-name="Rectangle 5754" width="24.807" height="19.137" fill="#256693"/>
    </clipPath>
  </defs>
  <g id="Group_90492" data-name="Group 90492" clip-path="url(#clip-path)">
    <path id="Path_124514" data-name="Path 124514" d="M22.431,120.509H2.378A2.2,2.2,0,0,0,0,122.456v8.313a2.2,2.2,0,0,0,2.378,1.943H4.835v-3.881H3.884a1.032,1.032,0,1,1,0-2.063H20.925a1.032,1.032,0,0,1,0,2.063h-.951v3.881h2.457a2.2,2.2,0,0,0,2.375-1.943v-8.314a2.2,2.2,0,0,0-2.375-1.946Zm-10.026,4.3a1.017,1.017,0,1,1,1.018-1.015,1.019,1.019,0,0,1-1.018,1.015" transform="translate(0 -114.229)" fill="#256693"/>
    <rect id="Rectangle_5753" data-name="Rectangle 5753" width="14.184" height="5.448" transform="translate(5.311)" fill="#256693"/>
    <path id="Path_124515" data-name="Path 124515" d="M111,261.431v4.535H124.24V260.4H111Z" transform="translate(-105.217 -246.829)" fill="#256693"/>
  </g>
</svg>
